inDegrees=no
num_controls=7
num_derivatives=13
num_iterations=115
num_multipliers=7
num_parameters=0
num_slacks=7
num_states=26
objective=0.477041
objective_accelerations=0.044783
objective_balance=0.003687
objective_effort=0.040846
objective_height=0.382067
objective_ligament=0.005659
solver_duration=1608.167739
status=Solve_Succeeded
success=true
DataType=double
version=3
OpenSimVersion=4.5
endheader
time	/jointset/ground_pelvis/pelvis_tilt/value	/jointset/ground_pelvis/pelvis_tx/value	/jointset/ground_pelvis/pelvis_ty/value	/jointset/hip_l/hip_flexion_l/value	/jointset/hip_l/hip_adduction_l/value	/jointset/hip_l/hip_rotation_l/value	/jointset/back/lumbar_extension/value	/jointset/patellofemoral_l/patellar_flexion_l/value	/jointset/knee_l/knee_flexion_l/value	/jointset/knee_l/knee_adduction_l/value	/jointset/knee_l/knee_rotation_l/value	/jointset/ankle_l/ankle_angle_l/value	/jointset/subtalar_l/subtalar_angle_l/value	/jointset/ground_pelvis/pelvis_tilt/speed	/jointset/ground_pelvis/pelvis_tx/speed	/jointset/ground_pelvis/pelvis_ty/speed	/jointset/hip_l/hip_flexion_l/speed	/jointset/hip_l/hip_adduction_l/speed	/jointset/hip_l/hip_rotation_l/speed	/jointset/back/lumbar_extension/speed	/jointset/patellofemoral_l/patellar_flexion_l/speed	/jointset/knee_l/knee_flexion_l/speed	/jointset/knee_l/knee_adduction_l/speed	/jointset/knee_l/knee_rotation_l/speed	/jointset/ankle_l/ankle_angle_l/speed	/jointset/subtalar_l/subtalar_angle_l/speed	/forceset/tau_hip_flexion_l	/forceset/tau_hip_adduction_l	/forceset/tau_hip_rotation_l	/forceset/tau_knee_flexion_l	/forceset/tau_ankle_angle_l	/forceset/tau_subtalar_angle_l	/forceset/tau_lumbar_extension	lambda_cid13_p0	lambda_cid13_p1	lambda_cid13_p2	lambda_cid13_p3	lambda_cid13_p4	lambda_cid13_p5	lambda_cid14_p0	/jointset/ground_pelvis/pelvis_tilt/accel	/jointset/ground_pelvis/pelvis_tx/accel	/jointset/ground_pelvis/pelvis_ty/accel	/jointset/hip_l/hip_flexion_l/accel	/jointset/hip_l/hip_adduction_l/accel	/jointset/hip_l/hip_rotation_l/accel	/jointset/back/lumbar_extension/accel	/jointset/patellofemoral_l/patellar_flexion_l/accel	/jointset/knee_l/knee_flexion_l/accel	/jointset/knee_l/knee_adduction_l/accel	/jointset/knee_l/knee_rotation_l/accel	/jointset/ankle_l/ankle_angle_l/accel	/jointset/subtalar_l/subtalar_angle_l/accel	gamma_cid13_p0	gamma_cid13_p1	gamma_cid13_p2	gamma_cid13_p3	gamma_cid13_p4	gamma_cid13_p5	gamma_cid14_p0
0	-0.03679963553969866	0.05666735763109282	0.9203420004408047	0.3085816938045678	-0.2956334738205652	-0.3014556879238238	-0.3879492264334186	0.2499269421184946	0.2499269421184919	-0.1745327957976375	-0.1743839769258217	-0.0008036623358878681	0.0004429139730809068	0	0	0	0	0	0	0	0	0	0	0	0	0	0.06792162973076184	-0.04094632912160015	-0.01922278956460258	-0.2376548048530055	0.1840776597410681	-0.01743094217624979	0.005920565116176077	15.54567679912521	2.176843724734059	2.250115821498463	11.02632561900398	-622.7023225414355	-69.98908390305648	-23.19187324932735	-1.022236045450849	-2.023025905892951	-0.9247870896531604	9.309259643133609	-0.8306370329642971	3.316453862510056	-7.103738058828549	9.414277998763961	9.414277998763323	1.302173248310067	-0.08809257514471291	1.659073269355373	-0.3277420762713812	-9.186574547210539e-09	1.375716254262818e-07	6.504217499411938e-08	3.466781231105223e-09	6.120573417158427e-08	-5.855755215623212e-09	2.825700301781872e-09
0.01	-0.03684709097280017	0.05656731608210861	0.920296674299442	0.3090365157427531	-0.2956752459225588	-0.3012889718096211	-0.3883051133755852	0.2503890401857178	0.2503890401857132	-0.1744712927370236	-0.1743849977887638	-0.0007229369548545857	0.0004254961307990986	-0.00945858372470113	-0.01991572181330921	-0.009040832090712825	0.09060485466277103	-0.008320189380284764	0.03320785851410819	-0.07088868499900554	0.09206771169764304	0.09206771169763822	0.01224248043488088	-0.0002071113137449479	0.01609980920619043	-0.00346267121668938	0.06507821709325731	-0.05089053491372695	-0.01886811746739428	-0.2363154692197771	0.1799034077155241	-0.006396444856709273	0.008858508901933142	14.54540980991342	-2.349305258282691	2.867771205489352	10.39068015682643	-624.5438863872097	-79.32907372756132	-23.19722295705239	-0.9028007429202225	-1.961956428377077	-0.8900596003626133	8.882162750272865	-0.8276066540517334	3.302644359812697	-7.038128205140596	9.050231928217837	9.050231928217487	1.17659594210843	0.01254523366418456	1.578647350249042	-0.3524243618473697	-3.356534902859664e-08	1.426975390674938e-07	1.433193182015506e-07	2.284028633455283e-08	-1.809266096807638e-08	-5.075599712100728e-08	-6.244816018999948e-09
0.02	-0.03698815848454002	0.05627089509312568	0.9201616741708555	0.3103865991020486	-0.295799199271052	-0.3007942386074854	-0.3893612260646832	0.251761258204501	0.2517612582045006	-0.1742891027718365	-0.1743881766362186	-0.0004825709609595503	0.0003740726328544512	-0.01872241572699907	-0.03927588799974394	-0.01793479744472414	0.1790522842225078	-0.0164362493002111	0.06560341758627512	-0.1400451493861611	0.1820239903134197	0.1820239903134118	0.02413738091101148	-0.0004315969013460124	0.03192812257230542	-0.006801131132566738	0.06223480445573503	-0.06083474070587158	-0.01851344537012697	-0.2349761335865763	0.1757291556899663	0.004638052462807318	0.01179645268769236	13.61817794512698	-6.886780845585307	3.485562936304317	9.643787380640665	-625.2920612835466	-88.57830591255561	-23.21299474119076	-0.9832857009701245	-1.911914780518128	-0.8954137423128609	8.877774622526761	-0.7898111408926192	3.153993974121807	-6.757293936458491	8.991991382390699	8.991991382390406	1.232657256559999	-0.09156742991594742	1.604774101340197	-0.3028998161090157	-5.794412350998276e-08	1.478234527087058e-07	2.215964614089819e-07	4.221379143800045e-08	-9.739105610773703e-08	-9.565623902639135e-08	-1.531533233978177e-08
0.03	-0.03722077658267359	0.05578442476321851	0.9199384316535025	0.3126087515123721	-0.2960029340386098	-0.2999804722234735	-0.391096824768861	0.2540214534644518	0.2540214534644538	-0.1739895690966139	-0.1743939617915979	-8.476708668266137e-05	0.0002904335122698957	-0.02773548717836954	-0.05784853740032794	-0.02668927091080665	0.2648328441020114	-0.02424691368505403	0.09698358343154248	-0.2064698635969519	0.2695578469568664	0.2695578469568531	0.03570901814492903	-0.0007052982175593729	0.04764219674404509	-0.009856867451977277	0.0550671105143789	-0.05432859846813595	-0.01777622328479816	-0.2299865035804335	0.1727054022413331	0.002439370644357816	0.01852333557309632	12.49823519615542	-5.801002656563334	3.386937911320192	8.934611581021255	-627.4189629706761	-85.36486647477504	-23.23856279723294	-0.8504680626611164	-1.804485411793735	-0.8618186801055768	8.346383377808895	-0.7671768988094109	3.105059357034203	-6.494350985384488	8.565503697012819	8.56550369701197	1.11041338601238	0.00778275827114836	1.55615675012358	-0.2964855787838561	-8.328429867882598e-08	1.30154836239751e-07	2.788873372123421e-07	6.794508295822037e-08	-2.073618151155741e-07	-1.371897325949188e-07	-2.29360213741624e-08
0.04	-0.03754155543441345	0.05511731886091221	0.9196283734952185	0.3156723468629196	-0.2962828720123221	-0.2988578978875488	-0.3934785287795466	0.2571432714691805	0.2571432714691829	-0.1735761197632113	-0.1744018731119821	0.0004704640643180587	0.0001783220207058597	-0.0363545664473518	-0.07540300247956791	-0.03529792563088981	0.3473408722673812	-0.03167689053107086	0.1273650079690113	-0.269266210687536	0.3543485392679597	0.3543485392679335	0.04692051254703807	-0.0008568299039658046	0.06341357791709262	-0.01249560532845907	0.04789941657304941	-0.04782245623039156	-0.0170390011995124	-0.2249968735742672	0.1696816487927094	0.0002406888259212193	0.02525021845851214	11.44615626911507	-4.72395778451919	3.286108138214606	8.11249524581793	-628.543115502202	-82.06311184785895	-23.27302135499886	-0.9044872644923961	-1.708277916249394	-0.866249993112992	8.223268279700024	-0.7136736331273993	2.95424571256211	-6.031620512417097	8.443358515920051	8.443358515918224	1.160628690198303	-0.06713350395456576	1.616235501601687	-0.2195001275232928	-1.08644296542256e-07	1.120162294592464e-07	3.357455064712884e-07	9.380746285816756e-08	-3.179649939969818e-07	-1.786538086719648e-07	-3.052681706243168e-08
0.05	-0.03794695062316616	0.05427919847520057	0.9192326347606486	0.3195463952344198	-0.2966352166570823	-0.2974367739480725	-0.3964717923129401	0.2611001800304159	0.2611001800304135	-0.1730523037657158	-0.1744112191628228	0.001183212787877759	4.172504882181572e-05	-0.04466698095173825	-0.09210597325068799	-0.04385141169308135	0.4270369071523183	-0.03873380987762801	0.156702293692895	-0.3289889412296557	0.4366254663277791	0.4366254663278248	0.05776429857634147	-0.001000635855771664	0.07908534044533137	-0.01478146705336254	0.04202742236429381	-0.04644818619368951	-0.01632514456339973	-0.2212024450788471	0.1653334073091702	0.002255386913354408	0.03043140656531046	10.14730564092778	-5.388100827821529	3.410927895232866	7.951335351522076	-628.9049320854239	-82.6190523681793	-23.31523017037637	-0.7859995172507483	-1.634022475442624	-0.8502009610394087	7.77797498428562	-0.6930247166150176	2.899800121463469	-5.882966110762472	8.058709970056221	8.058709970067882	1.034546504292637	0.01381279852176034	1.535020031676712	-0.2268366490306664	-1.239297723513923e-07	7.573017141771852e-08	3.808769737737704e-07	1.054260669971252e-07	-3.836487050677981e-07	-2.132081246731336e-07	-3.885758589915481e-08
